<mxfile host="app.diagrams.net" modified="2023-05-12T11:51:12.370Z" agent="Mozilla/5.0 (Windows NT 10.0; Win64; x64) AppleWebKit/537.36 (KHTML, like Gecko) Chrome/113.0.0.0 Safari/537.36" etag="dF7QUWYrKwBzmfPmOIJa" version="21.2.9" type="device">
  <diagram name="Page-1" id="Xr-etEZZI4nPUK7yMiQG">
    <mxGraphModel dx="1195" dy="637" grid="1" gridSize="10" guides="1" tooltips="1" connect="1" arrows="1" fold="1" page="1" pageScale="1" pageWidth="2339" pageHeight="3300" math="0" shadow="0">
      <root>
        <mxCell id="0" />
        <mxCell id="1" parent="0" />
        <mxCell id="pyKE57iZHWBlqnJJrahv-78" value="" style="rounded=0;whiteSpace=wrap;html=1;fillColor=#dae8fc;gradientColor=#7ea6e0;strokeColor=#6c8ebf;" vertex="1" parent="1">
          <mxGeometry x="440" y="100" width="680" height="560" as="geometry" />
        </mxCell>
        <mxCell id="pyKE57iZHWBlqnJJrahv-73" value="Alarme connectée" style="shape=umlFrame;whiteSpace=wrap;html=1;pointerEvents=0;width=80;height=30;shadow=0;fillColor=#fff2cc;strokeColor=#d6b656;gradientColor=#ffd966;" vertex="1" parent="1">
          <mxGeometry x="440" y="100" width="680" height="560" as="geometry" />
        </mxCell>
        <mxCell id="pyKE57iZHWBlqnJJrahv-92" value="Appuie" style="edgeStyle=orthogonalEdgeStyle;rounded=0;orthogonalLoop=1;jettySize=auto;html=1;exitX=0.5;exitY=0.5;exitDx=0;exitDy=0;exitPerimeter=0;" edge="1" parent="1" source="pyKE57iZHWBlqnJJrahv-74" target="pyKE57iZHWBlqnJJrahv-88">
          <mxGeometry x="0.2727" relative="1" as="geometry">
            <mxPoint as="offset" />
          </mxGeometry>
        </mxCell>
        <mxCell id="pyKE57iZHWBlqnJJrahv-74" value="Utilisateur" style="shape=umlActor;verticalLabelPosition=bottom;verticalAlign=top;html=1;" vertex="1" parent="1">
          <mxGeometry x="350" y="310" width="30" height="60" as="geometry" />
        </mxCell>
        <mxCell id="pyKE57iZHWBlqnJJrahv-90" value="Déclenche" style="edgeStyle=orthogonalEdgeStyle;rounded=0;orthogonalLoop=1;jettySize=auto;html=1;exitX=0.5;exitY=0.5;exitDx=0;exitDy=0;exitPerimeter=0;entryX=1;entryY=0.5;entryDx=0;entryDy=0;" edge="1" parent="1" source="pyKE57iZHWBlqnJJrahv-75" target="pyKE57iZHWBlqnJJrahv-82">
          <mxGeometry x="-0.3333" y="-10" relative="1" as="geometry">
            <mxPoint as="offset" />
          </mxGeometry>
        </mxCell>
        <mxCell id="pyKE57iZHWBlqnJJrahv-75" value="&lt;font color=&quot;#000000&quot;&gt;Intrus&lt;/font&gt;" style="shape=umlActor;verticalLabelPosition=bottom;verticalAlign=top;html=1;outlineConnect=0;fillColor=#FFFFFF;strokeColor=#000000;fontColor=#ffffff;" vertex="1" parent="1">
          <mxGeometry x="1200" y="320" width="30" height="60" as="geometry" />
        </mxCell>
        <mxCell id="pyKE57iZHWBlqnJJrahv-94" style="edgeStyle=orthogonalEdgeStyle;rounded=0;orthogonalLoop=1;jettySize=auto;html=1;exitX=0;exitY=1;exitDx=0;exitDy=0;entryX=0.5;entryY=0;entryDx=0;entryDy=0;" edge="1" parent="1" source="pyKE57iZHWBlqnJJrahv-79" target="pyKE57iZHWBlqnJJrahv-83">
          <mxGeometry relative="1" as="geometry" />
        </mxCell>
        <mxCell id="pyKE57iZHWBlqnJJrahv-95" value="Active" style="edgeLabel;html=1;align=center;verticalAlign=middle;resizable=0;points=[];" vertex="1" connectable="0" parent="pyKE57iZHWBlqnJJrahv-94">
          <mxGeometry x="0.2513" relative="1" as="geometry">
            <mxPoint x="22" y="-15" as="offset" />
          </mxGeometry>
        </mxCell>
        <mxCell id="pyKE57iZHWBlqnJJrahv-97" value="Affiche_message" style="edgeStyle=orthogonalEdgeStyle;rounded=0;orthogonalLoop=1;jettySize=auto;html=1;exitX=0.5;exitY=1;exitDx=0;exitDy=0;entryX=0.5;entryY=0;entryDx=0;entryDy=0;" edge="1" parent="1" source="pyKE57iZHWBlqnJJrahv-79" target="pyKE57iZHWBlqnJJrahv-85">
          <mxGeometry relative="1" as="geometry" />
        </mxCell>
        <mxCell id="pyKE57iZHWBlqnJJrahv-98" style="edgeStyle=orthogonalEdgeStyle;rounded=0;orthogonalLoop=1;jettySize=auto;html=1;exitX=1;exitY=1;exitDx=0;exitDy=0;entryX=0;entryY=0;entryDx=0;entryDy=0;" edge="1" parent="1" source="pyKE57iZHWBlqnJJrahv-79" target="pyKE57iZHWBlqnJJrahv-89">
          <mxGeometry relative="1" as="geometry" />
        </mxCell>
        <mxCell id="pyKE57iZHWBlqnJJrahv-99" value="Envoi_message" style="edgeLabel;html=1;align=center;verticalAlign=middle;resizable=0;points=[];" vertex="1" connectable="0" parent="pyKE57iZHWBlqnJJrahv-98">
          <mxGeometry x="-0.2235" y="-2" relative="1" as="geometry">
            <mxPoint as="offset" />
          </mxGeometry>
        </mxCell>
        <mxCell id="pyKE57iZHWBlqnJJrahv-79" value="Alarme" style="ellipse;whiteSpace=wrap;html=1;fillColor=#fff2cc;gradientColor=#ffd966;strokeColor=#d6b656;" vertex="1" parent="1">
          <mxGeometry x="750" y="160" width="120" height="80" as="geometry" />
        </mxCell>
        <mxCell id="pyKE57iZHWBlqnJJrahv-80" value="Internet" style="shape=umlActor;verticalLabelPosition=bottom;verticalAlign=top;html=1;outlineConnect=0;" vertex="1" parent="1">
          <mxGeometry x="1155" y="490" width="30" height="60" as="geometry" />
        </mxCell>
        <mxCell id="pyKE57iZHWBlqnJJrahv-91" value="Active" style="edgeStyle=orthogonalEdgeStyle;rounded=0;orthogonalLoop=1;jettySize=auto;html=1;exitX=0.5;exitY=0;exitDx=0;exitDy=0;entryX=1;entryY=0.5;entryDx=0;entryDy=0;" edge="1" parent="1" source="pyKE57iZHWBlqnJJrahv-82" target="pyKE57iZHWBlqnJJrahv-79">
          <mxGeometry x="0.0435" y="-10" relative="1" as="geometry">
            <mxPoint as="offset" />
          </mxGeometry>
        </mxCell>
        <mxCell id="pyKE57iZHWBlqnJJrahv-82" value="Capteur mouvement" style="ellipse;whiteSpace=wrap;html=1;fillColor=#fff2cc;gradientColor=#ffd966;strokeColor=#d6b656;" vertex="1" parent="1">
          <mxGeometry x="940" y="300" width="120" height="80" as="geometry" />
        </mxCell>
        <mxCell id="pyKE57iZHWBlqnJJrahv-83" value="Buzzer" style="ellipse;whiteSpace=wrap;html=1;fillColor=#fff2cc;gradientColor=#ffd966;strokeColor=#d6b656;" vertex="1" parent="1">
          <mxGeometry x="640" y="330" width="120" height="80" as="geometry" />
        </mxCell>
        <mxCell id="pyKE57iZHWBlqnJJrahv-85" value="Ecran" style="ellipse;whiteSpace=wrap;html=1;fillColor=#fff2cc;gradientColor=#ffd966;strokeColor=#d6b656;" vertex="1" parent="1">
          <mxGeometry x="770" y="330" width="120" height="80" as="geometry" />
        </mxCell>
        <mxCell id="pyKE57iZHWBlqnJJrahv-93" value="Désactive" style="edgeStyle=orthogonalEdgeStyle;rounded=0;orthogonalLoop=1;jettySize=auto;html=1;entryX=0;entryY=0.5;entryDx=0;entryDy=0;" edge="1" parent="1" source="pyKE57iZHWBlqnJJrahv-88" target="pyKE57iZHWBlqnJJrahv-79">
          <mxGeometry x="0.4583" relative="1" as="geometry">
            <mxPoint as="offset" />
          </mxGeometry>
        </mxCell>
        <mxCell id="pyKE57iZHWBlqnJJrahv-88" value="Bouton" style="ellipse;whiteSpace=wrap;html=1;fillColor=#fff2cc;gradientColor=#ffd966;strokeColor=#d6b656;" vertex="1" parent="1">
          <mxGeometry x="500" y="270" width="120" height="80" as="geometry" />
        </mxCell>
        <mxCell id="pyKE57iZHWBlqnJJrahv-100" value="Envoi_Mail" style="edgeStyle=orthogonalEdgeStyle;rounded=0;orthogonalLoop=1;jettySize=auto;html=1;entryX=0.5;entryY=0.5;entryDx=0;entryDy=0;entryPerimeter=0;" edge="1" parent="1" source="pyKE57iZHWBlqnJJrahv-89" target="pyKE57iZHWBlqnJJrahv-80">
          <mxGeometry relative="1" as="geometry" />
        </mxCell>
        <mxCell id="pyKE57iZHWBlqnJJrahv-89" value="Client mail" style="ellipse;whiteSpace=wrap;html=1;fillColor=#fff2cc;gradientColor=#ffd966;strokeColor=#d6b656;" vertex="1" parent="1">
          <mxGeometry x="890" y="410" width="120" height="80" as="geometry" />
        </mxCell>
      </root>
    </mxGraphModel>
  </diagram>
</mxfile>
